/vscmnt/brussel_pixiu_data/_data_brussel/112/vsc11236/PredSimResults/SUBJ07opt3D/weighted-LRposFixed/trackIG/worker_03.mot
version=1
nRows=9
nColumns=50
inDegrees=yes
endheader
                time	         pelvis_tilt	         pelvis_list	     pelvis_rotation	           pelvis_tx	           pelvis_ty	           pelvis_tz	       hip_flexion_r	     hip_adduction_r	      hip_rotation_r	        knee_angle_r	       ankle_angle_r	         mtp_angle_r	       hip_flexion_l	     hip_adduction_l	      hip_rotation_l	        knee_angle_l	       ankle_angle_l	         mtp_angle_l	    lumbar_extension	      lumbar_bending	     lumbar_rotation	 ercspn_r/activation	 intobl_r/activation	 extobl_r/activation	    abd_r/activation	    add_r/activation	hamstrings_r/activation	bifemsh_r/activation	glut_max_r/activation	iliopsoas_r/activation	rect_fem_r/activation	  vasti_r/activation	gastroc_r/activation	 soleus_r/activation	tib_ant_r/activation	 ercspn_l/activation	 intobl_l/activation	 extobl_l/activation	    abd_l/activation	    add_l/activation	hamstrings_l/activation	bifemsh_l/activation	glut_max_l/activation	iliopsoas_l/activation	rect_fem_l/activation	  vasti_l/activation	gastroc_l/activation	 soleus_l/activation	tib_ant_l/activation	
          0.00000000	         -4.31076251	         -0.23876942	          9.38967098	          0.00000000	          0.84568730	         -0.01425991	         31.27395491	         -2.72707797	         -5.84382837	         -8.34621948	          2.66870673	          0.27385094	        -14.85224712	         -0.18426406	          5.21213765	         -8.85651041	          8.18715269	         29.26439103	        -11.94171087	         -1.22336858	         -1.60710070	          0.12577508	          0.12370180	          0.00999999	          0.01494039	          0.18343699	          0.09061707	          0.10367379	          0.11136465	          0.04585468	          0.00999999	          0.00999999	          0.00999999	          0.00999999	          0.43020677	          0.11699838	          0.00999999	          0.00999999	          0.03199260	          0.05595078	          0.01739252	          0.16849917	          0.01967651	          0.42665127	          0.01184368	          0.00999999	          0.16752613	          0.32296044	          0.01720970	
          0.01106215	         -4.30181649	         -0.19384788	          9.43793239	          0.01656682	          0.84395499	         -0.01378532	         31.23586204	         -2.53604874	         -5.53730828	        -10.25753089	          2.29949069	          0.25047936	        -15.32594366	         -0.28567921	          4.90739524	        -10.01320400	          7.21506176	         30.90558577	        -11.78099595	         -0.86182861	         -1.80236588	          0.10619584	          0.12656288	          0.00999999	          0.01261464	          0.16974624	          0.07894059	          0.10405637	          0.17394193	          0.03871654	          0.00999999	          0.00999999	          0.01402729	          0.01184368	          0.47558351	          0.14072482	          0.00999999	          0.00999999	          0.02701235	          0.08688732	          0.01468505	          0.14226912	          0.01661349	          0.40297075	          0.00999999	          0.00999999	          0.14144756	          0.30192944	          0.01453069	
          0.02212431	         -4.28730874	         -0.13679047	          9.42994410	          0.03326816	          0.84245813	         -0.01324186	         31.04619852	         -2.38339154	         -5.20187086	        -11.95308952	          1.89750866	          0.24113501	        -15.58934072	         -0.34743968	          4.55004130	        -11.57150685	          6.12823468	         32.50802891	        -11.62170702	         -0.50957065	         -1.98559338	          0.13684480	          0.10686100	          0.00999999	          0.08972832	          0.18011791	          0.06970558	          0.10162412	          0.18400216	          0.03268958	          0.00999999	          0.00999999	          0.01184368	          0.00999999	          0.55218281	          0.16183386	          0.00999999	          0.00999999	          0.02280738	          0.07836672	          0.01239905	          0.12012227	          0.01402729	          0.35026509	          0.00999999	          0.00999999	          0.11942860	          0.27837488	          0.01226871	
          0.03318646	         -4.26897030	         -0.05889768	          9.36728233	          0.04990175	          0.84134373	         -0.01260636	         30.79768125	         -2.24531362	         -4.93098232	        -13.53574335	          1.49235531	          0.21996678	        -15.58684040	         -0.36196029	          4.14821479	        -13.58881113	          4.88538156	         34.00339896	        -11.48435776	         -0.17755514	         -2.15438487	          0.15346869	          0.09022609	          0.00999999	          0.14692382	          0.18965710	          0.05885460	          0.08580443	          0.21520057	          0.02760084	          0.00999999	          0.00999999	          0.00999999	          0.00999999	          0.57257591	          0.19981950	          0.00999999	          0.00999999	          0.01925698	          0.07669343	          0.01415573	          0.10142300	          0.01184368	          0.29573978	          0.00999999	          0.00999999	          0.10083730	          0.24174312	          0.01035886	
          0.04424861	         -4.24730697	          0.02880817	          9.25564114	          0.06627691	          0.84076480	         -0.01189271	         30.58874076	         -2.11566618	         -4.71271621	        -15.21306306	          1.38781066	          0.19616914	        -15.26438954	         -0.34153408	          3.71173153	        -16.12270801	          3.49549630	         35.20504310	        -11.38173881	          0.14722570	         -2.30518479	          0.16192307	          0.07618071	          0.00999999	          0.18845063	          0.20840271	          0.05016948	          0.07244736	          0.23947274	          0.02330425	          0.00999999	          0.03125214	          0.00999999	          0.00999999	          0.56407854	          0.24270928	          0.00999999	          0.00999999	          0.01625927	          0.09667736	          0.01511889	          0.09322379	          0.00999999	          0.24970235	          0.00999999	          0.00999999	          0.08514009	          0.20411128	          0.00999999	
          0.05531077	         -4.22375997	          0.12033848	          9.09711778	          0.08225895	          0.84085766	         -0.01111516	         30.43234216	         -1.98935409	         -4.54005355	        -16.98757404	          1.63485924	          0.17635423	        -14.57343287	         -0.29321996	          3.24514210	        -19.22579786	          1.98442955	         35.84077503	        -11.31925937	          0.46914668	         -2.43510298	          0.17236894	          0.06432176	          0.00999999	          0.20786144	          0.22742494	          0.04530843	          0.06116957	          0.24836498	          0.01967651	          0.00999999	          0.06158926	          0.00999999	          0.00999999	          0.50901070	          0.26918705	          0.00999999	          0.00999999	          0.01372821	          0.12870442	          0.01644674	          0.07871177	          0.00999999	          0.21083151	          0.00999999	          0.00999999	          0.07188644	          0.17233754	          0.00999999	
          0.06637292	         -4.19991255	          0.21609317	          8.89374198	          0.09784118	          0.84165071	         -0.01029545	         30.25392493	         -1.85956875	         -4.39209758	        -18.71157003	          2.21391640	          0.18133732	        -13.50253952	         -0.22154685	          2.76289522	        -22.88443905	          0.30119962	         35.75219577	        -11.28701181	          0.78511484	         -2.54261596	          0.15905847	          0.05430887	          0.00999999	          0.21345308	          0.23515553	          0.04397596	          0.05164739	          0.23881144	          0.01661349	          0.00999999	          0.10795354	          0.00999999	          0.00999999	          0.42977366	          0.28782246	          0.00999999	          0.00999999	          0.01159116	          0.15681895	          0.01569011	          0.06645883	          0.00999999	          0.17801164	          0.00999999	          0.00999999	          0.06069597	          0.14550998	          0.00999999	
          0.07743508	         -4.17881866	          0.31538995	          8.64714502	          0.11304617	          0.84311346	         -0.00944064	         29.94850352	         -1.71302522	         -4.23201429	        -20.17800966	          3.04371928	          0.25655686	        -12.07071134	         -0.13309355	          2.29823763	        -26.99075398	         -1.71928825	         34.96292367	        -11.27478080	          1.08998310	         -2.62878435	          0.13429804	          0.04585468	          0.00999999	          0.21406791	          0.22843099	          0.05011031	          0.04360750	          0.20663672	          0.01402729	          0.00999999	          0.14579614	          0.00999999	          0.00999999	          0.36287135	          0.28677935	          0.00999999	          0.00999999	          0.00999999	          0.16765849	          0.01324765	          0.06466219	          0.00999999	          0.15030080	          0.00999999	          0.00999999	          0.05124751	          0.12285863	          0.00999999	
          0.08849723	         -4.16382803	          0.41725939	          8.35775581	          0.12787278	          0.84515897	         -0.00855021	         29.45361511	         -1.53947775	         -4.02231097	        -21.23770170	          3.91236820	          0.40474327	        -10.31822850	         -0.02910842	          1.89178666	        -31.39111770	         -4.16830177	         33.44102863	        -11.28041988	          1.37940069	         -2.69413142	          0.11339204	          0.03871654	          0.00999999	          0.21047011	          0.21042975	          0.06255030	          0.03681918	          0.17446985	          0.01184368	          0.00999999	          0.17252971	          0.00999999	          0.00999999	          0.30638364	          0.27673073	          0.00999999	          0.00999999	          0.00999999	          0.17195059	          0.01859849	          0.05459631	          0.00999999	          0.12690367	          0.00999999	          0.00999999	          0.04326987	          0.10373338	          0.02098811	
